<svg width="500" height="500" viewBox="0 0 500 500" fill="none" xmlns="http://www.w3.org/2000/svg">
<circle cx="250" cy="250" r="250" fill="white"/>
<g clip-path="url(#clip0_3694_443)">
<path d="M236.416 112L237.049 112.073C237.178 112.087 237.178 112.106 237.049 112.129C207.6 117.143 181.442 134.008 173.295 164.143C170.314 175.159 169.93 186.481 171.423 197.935C173.209 211.62 178.539 224.264 187.359 234.708C205.099 255.72 232.36 265.474 256.81 276.154C265.449 279.93 274.524 284.294 282.094 290.242C288.521 295.294 293.263 302.029 293.916 310.373C295.245 327.324 285.387 341.074 268.642 344.466C258.163 346.591 246.862 344.977 236.644 341.851C219.967 336.751 204.221 328.066 190.611 317.251C190.502 317.165 190.413 317.182 190.345 317.302L167.265 358.89C167.21 358.991 167.229 359.073 167.322 359.137C186.365 372.482 207.14 382.623 230.003 386.852C230.137 386.877 230.136 386.9 230 386.919L229.401 387" stroke="#99EBD7" stroke-width="2"/>
<path d="M281.533 112L280.918 112.097C280.751 112.124 280.751 112.149 280.918 112.172C281.931 112.319 282.935 112.508 283.931 112.741C304.268 117.492 322.307 127.488 338.947 139.849C339.027 139.91 339.044 139.985 338.998 140.075L317.111 182.112C317.103 182.128 317.091 182.142 317.076 182.153C317.062 182.164 317.045 182.172 317.027 182.176C317.009 182.179 316.99 182.179 316.972 182.174C316.954 182.17 316.937 182.161 316.923 182.149C299.531 167.773 276.728 154.316 253.404 154.689C240.288 154.899 228.498 161.387 224.776 174.495C222.759 181.588 223.458 189.046 226.866 195.539C231.27 203.937 240.342 210.197 248.482 214.66C274.035 228.666 303.699 237.286 324.031 258.948C335.646 271.323 341.788 286.869 342.599 304.014C343.335 319.493 340.932 335.362 333.796 349.23C322.597 371.008 300.659 382.671 277.308 386.785C277.195 386.804 276.973 386.764 276.919 386.844C276.879 386.903 276.895 386.935 276.964 386.938L277.808 387" stroke="#9A9C9F" stroke-width="2"/>
<path d="M113 112H236.417L237.051 112.073C237.18 112.087 237.18 112.106 237.051 112.129C207.601 117.143 181.444 134.008 173.296 164.143C170.315 175.159 169.931 186.481 171.424 197.935C173.21 211.62 178.541 224.264 187.36 234.708C205.101 255.72 232.362 265.474 256.811 276.154C265.45 279.93 274.525 284.294 282.095 290.242C288.522 295.294 293.265 302.029 293.917 310.373C295.247 327.324 285.388 341.074 268.644 344.466C258.165 346.591 246.864 344.977 236.645 341.851C219.968 336.751 204.223 328.066 190.612 317.251C190.503 317.165 190.414 317.182 190.346 317.302L167.267 358.89C167.211 358.991 167.23 359.073 167.323 359.137C186.366 372.482 207.142 382.623 230.004 386.852C230.138 386.877 230.137 386.9 230.001 386.919L229.402 387H113V112Z" fill="#32D6AE"/>
<path d="M236.416 112H281.533L280.918 112.097C280.751 112.124 280.751 112.149 280.918 112.172C281.931 112.319 282.936 112.508 283.931 112.741C304.269 117.492 322.307 127.488 338.947 139.849C339.028 139.91 339.045 139.985 338.998 140.075L317.111 182.112C317.103 182.128 317.091 182.142 317.077 182.153C317.062 182.164 317.045 182.172 317.027 182.176C317.009 182.179 316.99 182.179 316.972 182.174C316.954 182.17 316.937 182.161 316.923 182.149C299.531 167.773 276.728 154.316 253.404 154.689C240.288 154.899 228.499 161.387 224.776 174.495C222.76 181.588 223.458 189.046 226.866 195.539C231.27 203.937 240.342 210.197 248.482 214.66C274.035 228.666 303.699 237.286 324.032 258.948C335.647 271.323 341.788 286.869 342.599 304.014C343.335 319.493 340.932 335.362 333.796 349.23C322.597 371.008 300.659 382.671 277.308 386.785C277.196 386.804 276.973 386.764 276.919 386.844C276.88 386.903 276.895 386.935 276.965 386.938L277.808 387H229.401L230 386.919C230.136 386.9 230.137 386.877 230.003 386.852C207.14 382.623 186.365 372.482 167.322 359.137C167.229 359.073 167.21 358.991 167.265 358.89L190.345 317.302C190.413 317.182 190.502 317.165 190.611 317.251C204.221 328.066 219.967 336.751 236.644 341.851C246.862 344.977 258.163 346.591 268.642 344.466C285.387 341.074 295.245 327.324 293.916 310.373C293.263 302.029 288.521 295.294 282.094 290.242C274.524 284.294 265.449 279.93 256.81 276.154C232.36 265.474 205.099 255.72 187.359 234.708C178.539 224.264 173.209 211.62 171.423 197.935C169.93 186.481 170.314 175.159 173.295 164.143C181.442 134.008 207.6 117.143 237.049 112.129C237.178 112.106 237.178 112.087 237.049 112.073L236.416 112Z" fill="white"/>
<path d="M281.533 112H387.998V387H277.808L276.964 386.938C276.895 386.935 276.879 386.903 276.919 386.844C276.973 386.764 277.195 386.804 277.308 386.785C300.659 382.671 322.597 371.008 333.796 349.23C340.932 335.362 343.335 319.493 342.599 304.014C341.788 286.869 335.646 271.323 324.031 258.948C303.699 237.286 274.035 228.666 248.482 214.66C240.342 210.197 231.27 203.937 226.866 195.539C223.458 189.046 222.759 181.588 224.776 174.495C228.498 161.387 240.288 154.899 253.404 154.689C276.728 154.316 299.531 167.773 316.923 182.149C316.937 182.161 316.954 182.17 316.972 182.174C316.99 182.179 317.009 182.179 317.027 182.176C317.045 182.172 317.062 182.164 317.076 182.153C317.091 182.142 317.103 182.128 317.111 182.112L338.998 140.075C339.044 139.985 339.027 139.91 338.947 139.849C322.307 127.488 304.268 117.492 283.931 112.741C282.935 112.508 281.931 112.319 280.918 112.172C280.751 112.149 280.751 112.124 280.918 112.097L281.533 112Z" fill="#35393F"/>
</g>
<defs>
<clipPath id="clip0_3694_443">
<rect width="275" height="275" fill="white" transform="translate(113 112)"/>
</clipPath>
</defs>
</svg>
